<svg width="120" height="40" viewBox="0 0 120 40" fill="none" xmlns="http://www.w3.org/2000/svg">
  <rect width="120" height="40" rx="8" fill="#1A1A1A"/>
  <path d="M25 12h8v16h-8V12zm0 8h6v2h-6v-2z" fill="#F59E0B"/>
  <path d="M37 12h8v16h-8V12zm0 8h6v2h-6v-2z" fill="#F59E0B"/>
  <path d="M49 12h8v16h-8V12zm0 8h6v2h-6v-2z" fill="#F59E0B"/>
  <path d="M61 12h8v16h-8V12zm0 8h6v2h-6v-2z" fill="#F59E0B"/>
  <path d="M73 12h8v16h-8V12zm0 8h6v2h-6v-2z" fill="#F59E0B"/>
  <path d="M85 12h8v16h-8V12zm0 8h6v2h-6v-2z" fill="#F59E0B"/>
  <path d="M97 12h8v16h-8V12zm0 8h6v2h-6v-2z" fill="#F59E0B"/>
</svg>
