<svg width="120" height="40" viewBox="0 0 120 40" fill="none" xmlns="http://www.w3.org/2000/svg">
  <rect width="120" height="40" rx="8" fill="#1A1A1A"/>
  <path d="M20 12h8v16h-8V12zm0 8h6v2h-6v-2z" fill="#00D4FF"/>
  <path d="M32 12h8v16h-8V12zm0 8h6v2h-6v-2z" fill="#00D4FF"/>
  <path d="M44 12h8v16h-8V12zm0 8h6v2h-6v-2z" fill="#00D4FF"/>
  <path d="M56 12h8v16h-8V12zm0 8h6v2h-6v-2z" fill="#00D4FF"/>
  <path d="M68 12h8v16h-8V12zm0 8h6v2h-6v-2z" fill="#00D4FF"/>
  <path d="M80 12h8v16h-8V12zm0 8h6v2h-6v-2z" fill="#00D4FF"/>
  <path d="M92 12h8v16h-8V12zm0 8h6v2h-6v-2z" fill="#00D4FF"/>
  <path d="M104 12h8v16h-8V12zm0 8h6v2h-6v-2z" fill="#00D4FF"/>
</svg>
