<svg width="120" height="40" viewBox="0 0 120 40" fill="none" xmlns="http://www.w3.org/2000/svg">
  <rect width="120" height="40" rx="8" fill="#1A1A1A"/>
  <path d="M25 12h6v16h-6V12zm0 8h4v2h-4v-2z" fill="#00D4AA"/>
  <path d="M35 12h6v16h-6V12zm0 8h4v2h-4v-2z" fill="#00D4AA"/>
  <path d="M45 12h6v16h-6V12zm0 8h4v2h-4v-2z" fill="#00D4AA"/>
  <path d="M55 12h6v16h-6V12zm0 8h4v2h-4v-2z" fill="#00D4AA"/>
  <path d="M65 12h6v16h-6V12zm0 8h4v2h-4v-2z" fill="#00D4AA"/>
  <path d="M75 12h6v16h-6V12zm0 8h4v2h-4v-2z" fill="#00D4AA"/>
  <path d="M85 12h6v16h-6V12zm0 8h4v2h-4v-2z" fill="#00D4AA"/>
  <path d="M95 12h6v16h-6V12zm0 8h4v2h-4v-2z" fill="#00D4AA"/>
</svg>
